<svg width="640" height="640" viewBox="0 0 640 640" fill="none" xmlns="http://www.w3.org/2000/svg">
<g clip-path="url(#clip0_138_2106)">
<rect width="640" height="640" rx="160" fill="#009440"/>
<circle cx="320" cy="240" r="160" fill="#302681"/>
<mask id="mask0_138_2106" style="mask-type:alpha" maskUnits="userSpaceOnUse" x="160" y="80" width="320" height="320">
<circle cx="320" cy="240" r="160" fill="#302681"/>
</mask>
<g mask="url(#mask0_138_2106)">
<path d="M175.655 171.209C332.679 150.742 435.19 223.163 478.442 257.315L480.465 258.919L480.727 259.127L480.948 259.378C484.169 263.023 488.198 269.231 488.448 275.596C488.58 278.962 487.647 282.436 484.966 285.362C482.359 288.208 478.421 290.186 473.198 291.335L471.311 291.75L469.86 290.473C378.417 209.875 271.024 186.782 166.322 203.756L164.397 204.068L163.02 202.689C161.185 200.855 159.265 198.47 157.804 195.798C156.358 193.155 155.22 189.972 155.321 186.63C155.427 183.127 156.893 179.76 160.081 177.052C163.144 174.45 167.616 172.601 173.586 171.488L173.681 171.471L173.775 171.458L175.655 171.209Z" fill="white" stroke="white" stroke-width="7.61905"/>
</g>
<circle cx="320" cy="760" r="320" fill="#FFCB00"/>
</g>
<defs>
<clipPath id="clip0_138_2106">
<rect width="640" height="640" rx="160" fill="white"/>
</clipPath>
</defs>
</svg>
