<?xml version="1.0" encoding="UTF-8"?>
<svg width="400" height="400" viewBox="0 0 400 400" fill="none" xmlns="http://www.w3.org/2000/svg">
  <g>
    <path d="M200 50 C 220 100, 280 120, 330 140 C 280 160, 220 180, 200 250 C 180 180, 120 160, 70 140 C 120 120, 180 100, 200 50 Z" fill="#FFD700" />
    <path d="M300 100 C 310 120, 340 130, 360 140 C 340 150, 310 160, 300 180 C 290 160, 260 150, 240 140 C 260 130, 290 120, 300 100 Z" fill="#FFD700" />
    <path d="M100 180 C 110 200, 140 210, 160 220 C 140 230, 110 240, 100 260 C 90 240, 60 230, 40 220 C 60 210, 90 200, 100 180 Z" fill="#FFD700" />
  </g>
</svg>